<?xml version="1.0" encoding="utf-8"?>
<!-- Generator: Adobe Illustrator 19.1.0, SVG Export Plug-In . SVG Version: 6.00 Build 0)  -->
<svg version="1.1" id="Layer_1" xmlns="http://www.w3.org/2000/svg" xmlns:xlink="http://www.w3.org/1999/xlink" x="0px" y="0px"
	 viewBox="0 0 36 36" style="enable-background:new 0 0 36 36;" xml:space="preserve">
<style type="text/css">
	.st0{fill:#010101;}
</style>
<g>
	<path class="st0" d="M18,0C8.1,0,0,8.1,0,18c0,9.9,8.1,18,18,18s18-8.1,18-18C36,8.1,27.9,0,18,0z M18,35.7l0.1-11.4
		c0.4-0.1,0.7-0.5,0.7-1c0-0.6-0.4-1-1-1c-0.6,0-1,0.4-1,1c0,0.5,0.3,0.8,0.7,1l-0.1,11.4c0,0-1-6.1-7.3-10.9c0,0,4-3.6,3.2-8.8
		l3.2,0l1.1,0l0.6,0l1,0l3.3,0c-1,5.1,3,8.8,3,8.8C19.1,29.6,18,35.7,18,35.7z M23.7,15.2L12.3,15l-1.9-7.4l15.5,0.2L23.7,15.2z"/>
</g>
</svg>
